<svg width="633" height="297" viewBox="0 0 633 297" fill="none" xmlns="http://www.w3.org/2000/svg">
<path d="M494.319 0.000244141C520.193 0.000303803 543.526 5.7403 564.32 17.219C585.207 28.6977 601.767 45.4921 613.999 67.6028C626.23 89.7136 632.346 116.67 632.346 148.472C632.346 180.274 626.23 207.23 613.999 229.341C601.767 251.452 585.207 268.246 564.32 279.725C543.526 291.204 520.193 296.944 494.319 296.944C468.35 296.944 444.969 291.157 424.175 279.584C403.382 268.011 386.87 251.216 374.638 229.199C362.501 207.089 356.432 180.18 356.432 148.472C356.432 116.67 362.501 89.7136 374.638 67.6028C386.87 45.4922 403.382 28.6978 424.175 17.219C444.969 5.74021 468.35 0.000244141 494.319 0.000244141ZM468.366 86.9026C461.211 82.7716 452.256 87.8775 452.167 96.1389L450.998 204.269C450.907 212.686 460.053 217.967 467.297 213.68L560.361 158.606C567.471 154.398 567.416 144.089 560.26 139.958L468.366 86.9026Z" fill="#912428"/>
<path d="M308.794 3.95166C316.747 3.95176 323.193 10.3985 323.193 18.3511V278.591C323.193 286.544 316.747 292.991 308.794 292.991H14.4004C6.44755 292.991 9.38601e-05 286.544 0 278.591V18.3511C0.00024587 10.3984 6.44764 3.95166 14.4004 3.95166H89.2939C94.4942 3.95166 99.2905 6.75549 101.842 11.2869L152.188 100.708C156.317 108.042 166.878 108.043 171.009 100.708L221.362 11.2862C223.914 6.75517 228.71 3.95166 233.91 3.95166H308.794Z" fill="#912428"/>
</svg>
